<?xml version="1.0" standalone="no"?>
<!DOCTYPE svg PUBLIC "-//W3C//DTD SVG 20010904//EN"
 "http://www.w3.org/TR/2001/REC-SVG-20010904/DTD/svg10.dtd">
<svg version="1.0" xmlns="http://www.w3.org/2000/svg"
 width="250.000000pt" height="250.000000pt" viewBox="0 0 250.000000 250.000000"
 preserveAspectRatio="xMidYMid meet">
<metadata>
Created by potrace 1.14, written by Peter Selinger 2001-2017
</metadata>
<g transform="translate(0.000000,250.000000) scale(0.100000,-0.100000)"
fill="#000000" stroke="none">
<path d="M1118 2345 c-2 -2 -22 -6 -46 -10 -334 -50 -655 -285 -806 -593 -30
-60 -86 -204 -85 -217 0 -3 -5 -31 -12 -63 -16 -74 -16 -417 1 -417 1 0 4 -13
6 -30 9 -51 54 -176 90 -249 88 -176 247 -350 405 -445 186 -112 382 -163 604
-156 135 4 153 6 220 24 22 6 42 10 45 10 13 0 121 41 158 60 23 12 42 18 42
14 0 -5 4 -3 8 2 13 20 83 55 94 49 7 -4 8 -2 4 4 -4 6 4 16 16 23 33 17 115
88 173 149 28 29 60 64 73 77 12 13 22 26 22 29 0 3 10 20 23 37 29 41 40 61
71 125 18 35 30 51 39 46 9 -5 9 -4 0 6 -9 10 -8 20 5 44 9 17 17 33 17 36 3
20 28 118 32 130 9 22 11 45 18 155 4 55 9 103 12 107 2 5 1 8 -4 8 -4 0 -9
24 -10 53 -2 70 -28 200 -52 262 -94 238 -226 410 -415 539 -135 92 -262 145
-436 181 -35 7 -306 16 -312 10z"/>
</g>
</svg>
